<?xml version="1.0" encoding="utf-8"?>
<!-- Generator: Adobe Illustrator 23.0.5, SVG Export Plug-In . SVG Version: 6.00 Build 0)  -->
<svg version="1.1" id="Capa_1" xmlns="http://www.w3.org/2000/svg" xmlns:xlink="http://www.w3.org/1999/xlink" x="0px" y="0px"
	 viewBox="0 0 506.1 116.5" style="enable-background:new 0 0 506.1 116.5;" xml:space="preserve">
<style type="text/css">
	.st0{display:none;}
	.st1{display:none;fill:none;stroke:#000000;stroke-width:5;stroke-miterlimit:10;}
	.st2{display:none;fill:#FFFFFF;}
</style>
<ellipse class="st0" cx="-27.5" cy="10.6" rx="100.2" ry="85.8"/>
<circle class="st0" cx="-13.1" cy="127.8" r="79.4"/>
<ellipse class="st0" cx="184.2" cy="34.4" rx="34.6" ry="93.4"/>
<ellipse class="st0" cx="117.5" cy="-10.2" rx="84.4" ry="31.8"/>
<ellipse class="st0" cx="75.3" cy="179.6" rx="49.2" ry="83.3"/>
<circle class="st0" cx="119.8" cy="56.1" r="61.1"/>
<ellipse class="st0" cx="148.6" cy="141.2" rx="94.9" ry="38.5"/>
<path class="st0" d="M342.4,212.8H36.6c-17.5,0-31.7-14.2-31.7-31.7v0c0-17.5,14.2-31.7,31.7-31.7h305.8c17.5,0,31.7,14.2,31.7,31.7
	v0C374.1,198.6,359.9,212.8,342.4,212.8z"/>
<ellipse class="st1" cx="121.1" cy="137.4" rx="283" ry="262.8"/>
<g>
	<g>
		<g>
			<path d="M51.5,10.7l40.9,100h-3.1L65.6,53.3C57.8,34.5,52.2,20.5,50,14.3h-0.2c-2,5.6-9,21.6-16.2,38.1L8.4,110.7H5.2l43.3-100
				H51.5z"/>
		</g>
	</g>
	<g id="V-Rev">
		<g id="V-Rev_1_">
			<path d="M100.8,110.7l-40.9-100H63l23.7,57.4c7.8,18.8,13.4,32.8,15.6,38.9h0.2c2-5.6,9-21.6,16.2-38.1l25.2-58.3h3.2l-43.3,100
				H100.8z"/>
		</g>
	</g>
</g>
<g>
	<g>
		<path d="M181.2,50.6h1.6l6.2,15c1.3,3.1,2.1,5.4,3.5,8.5h0.2c1.4-3.1,2.2-5.3,3.5-8.5l6.2-15h1.5l-10.6,25h-1.5L181.2,50.6z"/>
		<path d="M208.5,50.6h1.5v25h-1.5V50.6z"/>
		<path d="M219.1,50.6h17.1v1.1h-15.6v10.1h13.1v1.1h-13.1v11.8h16.1v1.1h-17.6V50.6z"/>
		<path d="M239.8,50.6h1.6l4.3,15.2c0.8,2.7,1.5,5.5,2.3,8.2h0.2c0.8-2.7,1.6-5.5,2.5-8.2l5.2-15.2h1.7l5.2,15.2
			c0.9,2.7,1.7,5.5,2.6,8.2h0.2c0.8-2.7,1.5-5.5,2.2-8.2l4.3-15.2h1.5l-7.4,25h-1.5l-6.2-18c-0.6-2-1.2-3.6-1.7-5.6h-0.2
			c-0.6,2-1.3,3.6-1.8,5.6l-6.1,18h-1.5L239.8,50.6z"/>
		<path d="M277,72.3l1.1-0.8c2.3,2.1,5.7,3.5,9.6,3.5c5.1,0,8.4-2.2,8.4-5.4c0-3.3-2.7-4.4-5.9-5.5l-4.9-1.7
			c-2.7-0.9-6.5-2.4-6.5-6.1c0-3.6,3.9-6,9-6c3.9,0,6.9,1.4,8.7,3l-1,0.8c-1.8-1.6-4.5-2.7-7.7-2.7c-4.5,0-7.5,1.9-7.5,4.8
			c0,3.1,3.3,4.3,5.6,5.1l4.9,1.7c3.5,1.3,6.8,2.7,6.8,6.6c0,3.8-4,6.6-10,6.6C282.9,76.1,279.4,74.5,277,72.3z"/>
		<path d="M320,50.6h1.4l11.4,25h-1.6l-6.7-15c-1.4-3-2.5-5.6-3.7-8.7h-0.2c-1.2,3.1-2.3,5.7-3.7,8.7l-6.8,15h-1.5L320,50.6z
			 M313.5,65.6h14.2v1.1h-14.2V65.6z"/>
		<path d="M337.5,50.6h1.6L353.2,69l3.7,4.9h0.2c-0.1-2.4-0.2-4.7-0.2-7.1V50.6h1.5v25h-1.6l-14.1-18.4l-3.7-4.9h-0.2
			c0.1,2.4,0.2,4.5,0.2,6.8v16.5h-1.5V50.6z"/>
		<path d="M374.5,50.6h1.4l11.4,25h-1.6l-6.7-15c-1.4-3-2.5-5.6-3.7-8.7h-0.2c-1.2,3.1-2.3,5.7-3.7,8.7l-6.8,15h-1.5L374.5,50.6z
			 M368,65.6h14.2v1.1H368V65.6z"/>
		<path d="M392,50.6h1.5v24h15v1.1H392V50.6z"/>
		<path d="M418.5,65.3L409,50.6h1.6l5.1,8.1c1.2,1.8,2.2,3.6,3.5,5.4h0.2c1.3-1.8,2.5-3.6,3.6-5.4l5.1-8.1h1.5l-9.6,14.7v10.3h-1.5
			V65.3z"/>
		<path d="M431.8,75l19-23.3h-17.3v-1.1h19.3v0.7l-19,23.3h19.2v1.1h-21.1V75z"/>
		<path d="M459.5,50.6h17.1v1.1H461v10.1h13.1v1.1H461v11.8h16.1v1.1h-17.6V50.6z"/>
		<path d="M483.6,50.6h8.8c6.3,0,10.3,1.8,10.3,6.4c0,4.4-4,6.8-10.3,6.8h-7.3v11.8h-1.5V50.6z M491.8,62.8c5.9,0,9.2-1.8,9.2-5.7
			c0-3.9-3.3-5.4-9.2-5.4h-6.7v11.1H491.8z M492,63.4l1.7-0.1l9.4,12.3h-1.8L492,63.4z"/>
	</g>
</g>
<circle class="st2" cx="-27.5" cy="181.1" r="7.7"/>
</svg>
