<svg id="Capa_1" data-name="Capa 1" xmlns="http://www.w3.org/2000/svg" viewBox="0 0 316.66 229.1"><defs><style>.cls-1{fill:#211915;}</style></defs><title>logo</title><path class="cls-1" d="M126.58,13.24l72.65,177.51h-5.48L151.67,88.8c-13.8-33.4-23.82-58.25-27.74-69.13h-.38c-3.63,9.87-15.9,38.3-28.73,67.57L50.08,190.75H44.47l76.8-177.51Z" transform="translate(-16.06 -13.24)"/><g id="V-Rev"><path class="cls-1" d="M214.22,190.76,141.57,13.25h5.49l42.08,102c13.8,33.4,23.82,58.25,27.73,69.13h.39c3.63-9.87,15.9-38.3,28.73-67.57L290.72,13.25h5.62l-76.8,177.51Z" transform="translate(-16.06 -13.24)"/></g><path class="cls-1" d="M16.06,216.85H17.7l6.2,15c1.26,3.11,2.13,5.38,3.48,8.45h.2c1.35-3.07,2.23-5.34,3.48-8.45l6.2-15h1.55l-10.55,25H26.71Z" transform="translate(-16.06 -13.24)"/><path class="cls-1" d="M43.31,216.85h1.55v25H43.31Z" transform="translate(-16.06 -13.24)"/><path class="cls-1" d="M53.91,216.85H71.05v1.06H55.46V228H68.53v1.06H55.46v11.76H71.54v1.06H53.91Z" transform="translate(-16.06 -13.24)"/><path class="cls-1" d="M74.58,216.85h1.65L80.49,232q1.17,4.09,2.32,8.19H83c.77-2.73,1.64-5.46,2.52-8.19l5.23-15.17H92.5L97.73,232l2.61,8.19h.2c.77-2.73,1.45-5.46,2.22-8.19L107,216.85h1.55l-7.36,25H99.66l-6.19-18c-.58-2-1.17-3.64-1.75-5.62h-.19c-.58,2-1.26,3.64-1.84,5.62l-6.1,18H82Z" transform="translate(-16.06 -13.24)"/><path class="cls-1" d="M111.33,238.54l1.06-.83A14.22,14.22,0,0,0,122,241.2c5.13,0,8.42-2.2,8.42-5.39s-2.71-4.4-5.9-5.53l-4.94-1.75c-2.71-.95-6.49-2.43-6.49-6.14,0-3.56,3.88-6,9-6a13.47,13.47,0,0,1,8.71,3l-1,.83a11.61,11.61,0,0,0-7.74-2.65c-4.46,0-7.46,1.89-7.46,4.77,0,3.11,3.34,4.29,5.62,5.08l4.94,1.75c3.53,1.25,6.77,2.73,6.77,6.6s-4,6.59-10,6.59A15.35,15.35,0,0,1,111.33,238.54Z" transform="translate(-16.06 -13.24)"/><path class="cls-1" d="M154.32,216.85h1.35l11.43,25h-1.65l-6.68-15c-1.35-3-2.51-5.61-3.68-8.72h-.19c-1.16,3.11-2.32,5.69-3.68,8.72l-6.78,15h-1.55Zm-6.49,15H162v1.06H147.83Z" transform="translate(-16.06 -13.24)"/><path class="cls-1" d="M171.79,216.85h1.65l14.14,18.36,3.68,4.92h.19c-.1-2.42-.19-4.7-.19-7V216.85h1.45v25h-1.65l-14.13-18.35-3.68-4.93h-.2c.1,2.35.2,4.47.2,6.82v16.46h-1.46Z" transform="translate(-16.06 -13.24)"/><path class="cls-1" d="M208.83,216.85h1.35l11.43,25H220l-6.68-15c-1.35-3-2.51-5.61-3.68-8.72h-.19c-1.16,3.11-2.32,5.69-3.68,8.72l-6.78,15H197.4Zm-6.49,15h14.19v1.06H202.34Z" transform="translate(-16.06 -13.24)"/><path class="cls-1" d="M226.3,216.85h1.55v24h15v1.06H226.3Z" transform="translate(-16.06 -13.24)"/><path class="cls-1" d="M249.59,231.57,240,216.85h1.65l5.13,8.12c1.16,1.82,2.23,3.56,3.49,5.38h.19c1.26-1.82,2.52-3.56,3.59-5.38l5.13-8.12h1.55l-9.59,14.72v10.31h-1.55Z" transform="translate(-16.06 -13.24)"/><path class="cls-1" d="M261.35,241.2l19-23.29H263v-1.06h19.27v.69l-19,23.28h19.17v1.06H261.35Z" transform="translate(-16.06 -13.24)"/><path class="cls-1" d="M289.09,216.85h17.14v1.06H290.64V228h13.08v1.06H290.64v11.76h16.08v1.06H289.09Z" transform="translate(-16.06 -13.24)"/><path class="cls-1" d="M313.15,216.85H322c6.29,0,10.26,1.82,10.26,6.45,0,4.4-4,6.75-10.26,6.75H314.7v11.83h-1.55ZM321.38,229c5.91,0,9.2-1.82,9.2-5.69s-3.29-5.39-9.2-5.39H314.7V229Zm.2.68,1.74-.08,9.39,12.29h-1.84Z" transform="translate(-16.06 -13.24)"/></svg>