<svg width="512" height="512" xmlns="http://www.w3.org/2000/svg">

 <g>
  <title>Layer 1</title>
  <g stroke="null" id="svg_15">
   <path stroke="null" id="svg_1" fill="#2783eb" d="m144.51395,446.48051l-90.67029,0a52.77714,52.77714 0 0 1 -52.719,-52.719l0,-340.42784a52.77714,52.77714 0 0 1 52.719,-52.719l272.59228,0a52.77714,52.77714 0 0 1 52.719,52.719l0,31.74478a11.62812,11.62812 0 0 1 -23.25625,0l0,-31.74478a29.50636,29.50636 0 0 0 -29.46276,-29.46276l-272.59228,0a29.50636,29.50636 0 0 0 -29.46276,29.46276l0,340.42784a29.50636,29.50636 0 0 0 29.46276,29.46276l90.67029,0a11.62812,11.62812 0 1 1 0,23.25625z" class="cls-1"/>
   <path stroke="null" id="svg_2" fill="#2783eb" d="m321.8719,511.8451l-136.26707,0c-29.07031,0 -52.719,-23.32892 -52.719,-51.99225l0,-334.43936c0,-28.66332 23.6487,-51.99225 52.719,-51.99225l272.54867,0c29.07031,0 52.719,23.32892 52.719,51.99225l0,204.94567a11.62812,11.62812 0 0 1 -23.25625,0l0,-204.94567a29.07031,29.07031 0 0 0 -29.46276,-28.736l-272.54867,0a29.07031,29.07031 0 0 0 -29.46276,28.736l0,334.43936a29.07031,29.07031 0 0 0 29.46276,28.736l136.26707,0a11.62812,11.62812 0 1 1 0,23.25625z" class="cls-1"/>
   <path stroke="null" id="svg_3" fill="#2783eb" d="m371.9019,189.55712l-156.60175,0a11.62812,11.62812 0 0 1 0,-23.25625l156.60175,0a11.62812,11.62812 0 0 1 0,23.25625z" class="cls-1"/>
   <path stroke="null" id="svg_4" fill="#2783eb" d="m371.9019,260.96834l-156.60175,0a11.62812,11.62812 0 0 1 0,-23.25625l156.60175,0a11.62812,11.62812 0 0 1 0,23.25625z" class="cls-1"/>
   <path stroke="null" id="svg_5" fill="#2783eb" d="m334.92447,332.37955l-119.62432,0a11.62812,11.62812 0 0 1 0,-23.25625l119.62432,0a11.62812,11.62812 0 1 1 0,23.25625z" class="cls-1"/>
   <path stroke="null" id="svg_6" fill="#2783eb" d="m428.55993,511.8451a11.62812,11.62812 0 0 1 -11.62812,-11.62812l0,-121.67378a11.62812,11.62812 0 0 1 23.25625,0l0,121.67378a11.62812,11.62812 0 0 1 -11.62812,11.62812z" class="cls-1"/>
   <path stroke="null" id="svg_7" fill="#2783eb" d="m485.33424,451.00094l-113.54862,0a11.62812,11.62812 0 0 1 0,-23.25625l113.54862,0a11.62812,11.62812 0 0 1 0,23.25625z" class="cls-1"/>
  </g>
 </g>
</svg>