<svg width="512" height="512" xmlns="http://www.w3.org/2000/svg">

 <g>
  <title>Layer 1</title>
  <g stroke="null" id="svg_8">
   <path stroke="null" id="svg_1" fill="#fff" d="m144.00084,445.93899l-90.66178,0a52.77219,52.77219 0 0 1 -52.71405,-52.71405l0,-340.39588a52.77219,52.77219 0 0 1 52.71405,-52.71405l272.56668,0a52.77219,52.77219 0 0 1 52.71405,52.71405l0,31.7418a11.62703,11.62703 0 0 1 -23.25406,0l0,-31.7418a29.50359,29.50359 0 0 0 -29.45999,-29.45999l-272.56668,0a29.50359,29.50359 0 0 0 -29.45999,29.45999l0,340.39588a29.50359,29.50359 0 0 0 29.45999,29.45999l90.66178,0a11.62703,11.62703 0 1 1 0,23.25406z" class="cls-1"/>
   <path stroke="null" id="svg_2" fill="#fff" d="m321.34213,511.29744l-136.25427,0c-29.06758,0 -52.71405,-23.32673 -52.71405,-51.98736l0,-334.40795c0,-28.66063 23.64647,-51.98736 52.71405,-51.98736l272.52308,0c29.06758,0 52.71405,23.32673 52.71405,51.98736l0,204.92643a11.62703,11.62703 0 0 1 -23.25406,0l0,-204.92643a29.06758,29.06758 0 0 0 -29.45999,-28.7333l-272.52308,0a29.06758,29.06758 0 0 0 -29.45999,28.7333l0,334.40795a29.06758,29.06758 0 0 0 29.45999,28.7333l136.25427,0a11.62703,11.62703 0 1 1 0,23.25406z" class="cls-1"/>
   <path stroke="null" id="svg_3" fill="#fff" d="m371.36743,189.03973l-156.58704,0a11.62703,11.62703 0 0 1 0,-23.25406l156.58704,0a11.62703,11.62703 0 0 1 0,23.25406z" class="cls-1"/>
   <path stroke="null" id="svg_4" fill="#fff" d="m371.36743,260.44424l-156.58704,0a11.62703,11.62703 0 0 1 0,-23.25406l156.58704,0a11.62703,11.62703 0 0 1 0,23.25406z" class="cls-1"/>
   <path stroke="null" id="svg_5" fill="#fff" d="m334.39347,331.84874l-119.61308,0a11.62703,11.62703 0 0 1 0,-23.25406l119.61308,0a11.62703,11.62703 0 1 1 0,23.25406z" class="cls-1"/>
   <path stroke="null" id="svg_6" fill="#fff" d="m428.02014,511.29744a11.62703,11.62703 0 0 1 -11.62703,-11.62703l0,-121.66235a11.62703,11.62703 0 0 1 23.25406,0l0,121.66235a11.62703,11.62703 0 0 1 -11.62703,11.62703z" class="cls-1"/>
   <path stroke="null" id="svg_7" fill="#fff" d="m484.78912,450.459l-113.53796,0a11.62703,11.62703 0 0 1 0,-23.25406l113.53796,0a11.62703,11.62703 0 0 1 0,23.25406z" class="cls-1"/>
  </g>
 </g>
</svg>