<?xml version="1.0" encoding="utf-8"?>
<svg xmlns="http://www.w3.org/2000/svg" xmlns:xlink="http://www.w3.org/1999/xlink" style="margin: auto; display: block; shape-rendering: auto;" width="200px" height="200px" viewBox="0 0 100 100" preserveAspectRatio="xMidYMid">
<g transform="rotate(0 50 50)">
  <rect x="46.5" y="26" rx="3.5" ry="4" width="7" height="4" fill="#fff">
    <animate attributeName="opacity" values="1;0" keyTimes="0;1" dur="1s" begin="-0.9868421052631579s" repeatCount="indefinite"></animate>
  </rect>
</g><g transform="rotate(4.7368421052631575 50 50)">
  <rect x="46.5" y="26" rx="3.5" ry="4" width="7" height="4" fill="#fff">
    <animate attributeName="opacity" values="1;0" keyTimes="0;1" dur="1s" begin="-0.9736842105263158s" repeatCount="indefinite"></animate>
  </rect>
</g><g transform="rotate(9.473684210526315 50 50)">
  <rect x="46.5" y="26" rx="3.5" ry="4" width="7" height="4" fill="#fff">
    <animate attributeName="opacity" values="1;0" keyTimes="0;1" dur="1s" begin="-0.9605263157894737s" repeatCount="indefinite"></animate>
  </rect>
</g><g transform="rotate(14.210526315789474 50 50)">
  <rect x="46.5" y="26" rx="3.5" ry="4" width="7" height="4" fill="#fff">
    <animate attributeName="opacity" values="1;0" keyTimes="0;1" dur="1s" begin="-0.9473684210526315s" repeatCount="indefinite"></animate>
  </rect>
</g><g transform="rotate(18.94736842105263 50 50)">
  <rect x="46.5" y="26" rx="3.5" ry="4" width="7" height="4" fill="#fff">
    <animate attributeName="opacity" values="1;0" keyTimes="0;1" dur="1s" begin="-0.9342105263157895s" repeatCount="indefinite"></animate>
  </rect>
</g><g transform="rotate(23.68421052631579 50 50)">
  <rect x="46.5" y="26" rx="3.5" ry="4" width="7" height="4" fill="#fff">
    <animate attributeName="opacity" values="1;0" keyTimes="0;1" dur="1s" begin="-0.9210526315789473s" repeatCount="indefinite"></animate>
  </rect>
</g><g transform="rotate(28.42105263157895 50 50)">
  <rect x="46.5" y="26" rx="3.5" ry="4" width="7" height="4" fill="#fff">
    <animate attributeName="opacity" values="1;0" keyTimes="0;1" dur="1s" begin="-0.9078947368421053s" repeatCount="indefinite"></animate>
  </rect>
</g><g transform="rotate(33.1578947368421 50 50)">
  <rect x="46.5" y="26" rx="3.5" ry="4" width="7" height="4" fill="#fff">
    <animate attributeName="opacity" values="1;0" keyTimes="0;1" dur="1s" begin="-0.8947368421052632s" repeatCount="indefinite"></animate>
  </rect>
</g><g transform="rotate(37.89473684210526 50 50)">
  <rect x="46.5" y="26" rx="3.5" ry="4" width="7" height="4" fill="#fff">
    <animate attributeName="opacity" values="1;0" keyTimes="0;1" dur="1s" begin="-0.881578947368421s" repeatCount="indefinite"></animate>
  </rect>
</g><g transform="rotate(42.63157894736842 50 50)">
  <rect x="46.5" y="26" rx="3.5" ry="4" width="7" height="4" fill="#fff">
    <animate attributeName="opacity" values="1;0" keyTimes="0;1" dur="1s" begin="-0.868421052631579s" repeatCount="indefinite"></animate>
  </rect>
</g><g transform="rotate(47.36842105263158 50 50)">
  <rect x="46.5" y="26" rx="3.5" ry="4" width="7" height="4" fill="#fff">
    <animate attributeName="opacity" values="1;0" keyTimes="0;1" dur="1s" begin="-0.8552631578947368s" repeatCount="indefinite"></animate>
  </rect>
</g><g transform="rotate(52.10526315789474 50 50)">
  <rect x="46.5" y="26" rx="3.5" ry="4" width="7" height="4" fill="#fff">
    <animate attributeName="opacity" values="1;0" keyTimes="0;1" dur="1s" begin="-0.8421052631578947s" repeatCount="indefinite"></animate>
  </rect>
</g><g transform="rotate(56.8421052631579 50 50)">
  <rect x="46.5" y="26" rx="3.5" ry="4" width="7" height="4" fill="#fff">
    <animate attributeName="opacity" values="1;0" keyTimes="0;1" dur="1s" begin="-0.8289473684210527s" repeatCount="indefinite"></animate>
  </rect>
</g><g transform="rotate(61.578947368421055 50 50)">
  <rect x="46.5" y="26" rx="3.5" ry="4" width="7" height="4" fill="#fff">
    <animate attributeName="opacity" values="1;0" keyTimes="0;1" dur="1s" begin="-0.8157894736842105s" repeatCount="indefinite"></animate>
  </rect>
</g><g transform="rotate(66.3157894736842 50 50)">
  <rect x="46.5" y="26" rx="3.5" ry="4" width="7" height="4" fill="#fff">
    <animate attributeName="opacity" values="1;0" keyTimes="0;1" dur="1s" begin="-0.8026315789473685s" repeatCount="indefinite"></animate>
  </rect>
</g><g transform="rotate(71.05263157894737 50 50)">
  <rect x="46.5" y="26" rx="3.5" ry="4" width="7" height="4" fill="#fff">
    <animate attributeName="opacity" values="1;0" keyTimes="0;1" dur="1s" begin="-0.7894736842105263s" repeatCount="indefinite"></animate>
  </rect>
</g><g transform="rotate(75.78947368421052 50 50)">
  <rect x="46.5" y="26" rx="3.5" ry="4" width="7" height="4" fill="#fff">
    <animate attributeName="opacity" values="1;0" keyTimes="0;1" dur="1s" begin="-0.7763157894736842s" repeatCount="indefinite"></animate>
  </rect>
</g><g transform="rotate(80.52631578947368 50 50)">
  <rect x="46.5" y="26" rx="3.5" ry="4" width="7" height="4" fill="#fff">
    <animate attributeName="opacity" values="1;0" keyTimes="0;1" dur="1s" begin="-0.7631578947368421s" repeatCount="indefinite"></animate>
  </rect>
</g><g transform="rotate(85.26315789473684 50 50)">
  <rect x="46.5" y="26" rx="3.5" ry="4" width="7" height="4" fill="#fff">
    <animate attributeName="opacity" values="1;0" keyTimes="0;1" dur="1s" begin="-0.75s" repeatCount="indefinite"></animate>
  </rect>
</g><g transform="rotate(90 50 50)">
  <rect x="46.5" y="26" rx="3.5" ry="4" width="7" height="4" fill="#fff">
    <animate attributeName="opacity" values="1;0" keyTimes="0;1" dur="1s" begin="-0.7368421052631579s" repeatCount="indefinite"></animate>
  </rect>
</g><g transform="rotate(94.73684210526316 50 50)">
  <rect x="46.5" y="26" rx="3.5" ry="4" width="7" height="4" fill="#fff">
    <animate attributeName="opacity" values="1;0" keyTimes="0;1" dur="1s" begin="-0.7236842105263158s" repeatCount="indefinite"></animate>
  </rect>
</g><g transform="rotate(99.47368421052632 50 50)">
  <rect x="46.5" y="26" rx="3.5" ry="4" width="7" height="4" fill="#fff">
    <animate attributeName="opacity" values="1;0" keyTimes="0;1" dur="1s" begin="-0.7105263157894737s" repeatCount="indefinite"></animate>
  </rect>
</g><g transform="rotate(104.21052631578948 50 50)">
  <rect x="46.5" y="26" rx="3.5" ry="4" width="7" height="4" fill="#fff">
    <animate attributeName="opacity" values="1;0" keyTimes="0;1" dur="1s" begin="-0.6973684210526315s" repeatCount="indefinite"></animate>
  </rect>
</g><g transform="rotate(108.94736842105263 50 50)">
  <rect x="46.5" y="26" rx="3.5" ry="4" width="7" height="4" fill="#fff">
    <animate attributeName="opacity" values="1;0" keyTimes="0;1" dur="1s" begin="-0.6842105263157895s" repeatCount="indefinite"></animate>
  </rect>
</g><g transform="rotate(113.6842105263158 50 50)">
  <rect x="46.5" y="26" rx="3.5" ry="4" width="7" height="4" fill="#fff">
    <animate attributeName="opacity" values="1;0" keyTimes="0;1" dur="1s" begin="-0.6710526315789473s" repeatCount="indefinite"></animate>
  </rect>
</g><g transform="rotate(118.42105263157895 50 50)">
  <rect x="46.5" y="26" rx="3.5" ry="4" width="7" height="4" fill="#fff">
    <animate attributeName="opacity" values="1;0" keyTimes="0;1" dur="1s" begin="-0.6578947368421053s" repeatCount="indefinite"></animate>
  </rect>
</g><g transform="rotate(123.15789473684211 50 50)">
  <rect x="46.5" y="26" rx="3.5" ry="4" width="7" height="4" fill="#fff">
    <animate attributeName="opacity" values="1;0" keyTimes="0;1" dur="1s" begin="-0.6447368421052632s" repeatCount="indefinite"></animate>
  </rect>
</g><g transform="rotate(127.89473684210526 50 50)">
  <rect x="46.5" y="26" rx="3.5" ry="4" width="7" height="4" fill="#fff">
    <animate attributeName="opacity" values="1;0" keyTimes="0;1" dur="1s" begin="-0.631578947368421s" repeatCount="indefinite"></animate>
  </rect>
</g><g transform="rotate(132.6315789473684 50 50)">
  <rect x="46.5" y="26" rx="3.5" ry="4" width="7" height="4" fill="#fff">
    <animate attributeName="opacity" values="1;0" keyTimes="0;1" dur="1s" begin="-0.618421052631579s" repeatCount="indefinite"></animate>
  </rect>
</g><g transform="rotate(137.3684210526316 50 50)">
  <rect x="46.5" y="26" rx="3.5" ry="4" width="7" height="4" fill="#fff">
    <animate attributeName="opacity" values="1;0" keyTimes="0;1" dur="1s" begin="-0.6052631578947368s" repeatCount="indefinite"></animate>
  </rect>
</g><g transform="rotate(142.10526315789474 50 50)">
  <rect x="46.5" y="26" rx="3.5" ry="4" width="7" height="4" fill="#fff">
    <animate attributeName="opacity" values="1;0" keyTimes="0;1" dur="1s" begin="-0.5921052631578947s" repeatCount="indefinite"></animate>
  </rect>
</g><g transform="rotate(146.8421052631579 50 50)">
  <rect x="46.5" y="26" rx="3.5" ry="4" width="7" height="4" fill="#fff">
    <animate attributeName="opacity" values="1;0" keyTimes="0;1" dur="1s" begin="-0.5789473684210527s" repeatCount="indefinite"></animate>
  </rect>
</g><g transform="rotate(151.57894736842104 50 50)">
  <rect x="46.5" y="26" rx="3.5" ry="4" width="7" height="4" fill="#fff">
    <animate attributeName="opacity" values="1;0" keyTimes="0;1" dur="1s" begin="-0.5657894736842105s" repeatCount="indefinite"></animate>
  </rect>
</g><g transform="rotate(156.31578947368422 50 50)">
  <rect x="46.5" y="26" rx="3.5" ry="4" width="7" height="4" fill="#fff">
    <animate attributeName="opacity" values="1;0" keyTimes="0;1" dur="1s" begin="-0.5526315789473685s" repeatCount="indefinite"></animate>
  </rect>
</g><g transform="rotate(161.05263157894737 50 50)">
  <rect x="46.5" y="26" rx="3.5" ry="4" width="7" height="4" fill="#fff">
    <animate attributeName="opacity" values="1;0" keyTimes="0;1" dur="1s" begin="-0.5394736842105263s" repeatCount="indefinite"></animate>
  </rect>
</g><g transform="rotate(165.78947368421052 50 50)">
  <rect x="46.5" y="26" rx="3.5" ry="4" width="7" height="4" fill="#fff">
    <animate attributeName="opacity" values="1;0" keyTimes="0;1" dur="1s" begin="-0.5263157894736842s" repeatCount="indefinite"></animate>
  </rect>
</g><g transform="rotate(170.52631578947367 50 50)">
  <rect x="46.5" y="26" rx="3.5" ry="4" width="7" height="4" fill="#fff">
    <animate attributeName="opacity" values="1;0" keyTimes="0;1" dur="1s" begin="-0.5131578947368421s" repeatCount="indefinite"></animate>
  </rect>
</g><g transform="rotate(175.26315789473685 50 50)">
  <rect x="46.5" y="26" rx="3.5" ry="4" width="7" height="4" fill="#fff">
    <animate attributeName="opacity" values="1;0" keyTimes="0;1" dur="1s" begin="-0.5s" repeatCount="indefinite"></animate>
  </rect>
</g><g transform="rotate(180 50 50)">
  <rect x="46.5" y="26" rx="3.5" ry="4" width="7" height="4" fill="#fff">
    <animate attributeName="opacity" values="1;0" keyTimes="0;1" dur="1s" begin="-0.4868421052631579s" repeatCount="indefinite"></animate>
  </rect>
</g><g transform="rotate(184.73684210526315 50 50)">
  <rect x="46.5" y="26" rx="3.5" ry="4" width="7" height="4" fill="#fff">
    <animate attributeName="opacity" values="1;0" keyTimes="0;1" dur="1s" begin="-0.47368421052631576s" repeatCount="indefinite"></animate>
  </rect>
</g><g transform="rotate(189.47368421052633 50 50)">
  <rect x="46.5" y="26" rx="3.5" ry="4" width="7" height="4" fill="#fff">
    <animate attributeName="opacity" values="1;0" keyTimes="0;1" dur="1s" begin="-0.4605263157894737s" repeatCount="indefinite"></animate>
  </rect>
</g><g transform="rotate(194.21052631578948 50 50)">
  <rect x="46.5" y="26" rx="3.5" ry="4" width="7" height="4" fill="#fff">
    <animate attributeName="opacity" values="1;0" keyTimes="0;1" dur="1s" begin="-0.4473684210526316s" repeatCount="indefinite"></animate>
  </rect>
</g><g transform="rotate(198.94736842105263 50 50)">
  <rect x="46.5" y="26" rx="3.5" ry="4" width="7" height="4" fill="#fff">
    <animate attributeName="opacity" values="1;0" keyTimes="0;1" dur="1s" begin="-0.4342105263157895s" repeatCount="indefinite"></animate>
  </rect>
</g><g transform="rotate(203.68421052631578 50 50)">
  <rect x="46.5" y="26" rx="3.5" ry="4" width="7" height="4" fill="#fff">
    <animate attributeName="opacity" values="1;0" keyTimes="0;1" dur="1s" begin="-0.42105263157894735s" repeatCount="indefinite"></animate>
  </rect>
</g><g transform="rotate(208.42105263157896 50 50)">
  <rect x="46.5" y="26" rx="3.5" ry="4" width="7" height="4" fill="#fff">
    <animate attributeName="opacity" values="1;0" keyTimes="0;1" dur="1s" begin="-0.40789473684210525s" repeatCount="indefinite"></animate>
  </rect>
</g><g transform="rotate(213.1578947368421 50 50)">
  <rect x="46.5" y="26" rx="3.5" ry="4" width="7" height="4" fill="#fff">
    <animate attributeName="opacity" values="1;0" keyTimes="0;1" dur="1s" begin="-0.39473684210526316s" repeatCount="indefinite"></animate>
  </rect>
</g><g transform="rotate(217.89473684210526 50 50)">
  <rect x="46.5" y="26" rx="3.5" ry="4" width="7" height="4" fill="#fff">
    <animate attributeName="opacity" values="1;0" keyTimes="0;1" dur="1s" begin="-0.3815789473684211s" repeatCount="indefinite"></animate>
  </rect>
</g><g transform="rotate(222.6315789473684 50 50)">
  <rect x="46.5" y="26" rx="3.5" ry="4" width="7" height="4" fill="#fff">
    <animate attributeName="opacity" values="1;0" keyTimes="0;1" dur="1s" begin="-0.3684210526315789s" repeatCount="indefinite"></animate>
  </rect>
</g><g transform="rotate(227.3684210526316 50 50)">
  <rect x="46.5" y="26" rx="3.5" ry="4" width="7" height="4" fill="#fff">
    <animate attributeName="opacity" values="1;0" keyTimes="0;1" dur="1s" begin="-0.35526315789473684s" repeatCount="indefinite"></animate>
  </rect>
</g><g transform="rotate(232.10526315789474 50 50)">
  <rect x="46.5" y="26" rx="3.5" ry="4" width="7" height="4" fill="#fff">
    <animate attributeName="opacity" values="1;0" keyTimes="0;1" dur="1s" begin="-0.34210526315789475s" repeatCount="indefinite"></animate>
  </rect>
</g><g transform="rotate(236.8421052631579 50 50)">
  <rect x="46.5" y="26" rx="3.5" ry="4" width="7" height="4" fill="#fff">
    <animate attributeName="opacity" values="1;0" keyTimes="0;1" dur="1s" begin="-0.32894736842105265s" repeatCount="indefinite"></animate>
  </rect>
</g><g transform="rotate(241.57894736842104 50 50)">
  <rect x="46.5" y="26" rx="3.5" ry="4" width="7" height="4" fill="#fff">
    <animate attributeName="opacity" values="1;0" keyTimes="0;1" dur="1s" begin="-0.3157894736842105s" repeatCount="indefinite"></animate>
  </rect>
</g><g transform="rotate(246.31578947368422 50 50)">
  <rect x="46.5" y="26" rx="3.5" ry="4" width="7" height="4" fill="#fff">
    <animate attributeName="opacity" values="1;0" keyTimes="0;1" dur="1s" begin="-0.3026315789473684s" repeatCount="indefinite"></animate>
  </rect>
</g><g transform="rotate(251.05263157894737 50 50)">
  <rect x="46.5" y="26" rx="3.5" ry="4" width="7" height="4" fill="#fff">
    <animate attributeName="opacity" values="1;0" keyTimes="0;1" dur="1s" begin="-0.2894736842105263s" repeatCount="indefinite"></animate>
  </rect>
</g><g transform="rotate(255.78947368421052 50 50)">
  <rect x="46.5" y="26" rx="3.5" ry="4" width="7" height="4" fill="#fff">
    <animate attributeName="opacity" values="1;0" keyTimes="0;1" dur="1s" begin="-0.27631578947368424s" repeatCount="indefinite"></animate>
  </rect>
</g><g transform="rotate(260.5263157894737 50 50)">
  <rect x="46.5" y="26" rx="3.5" ry="4" width="7" height="4" fill="#fff">
    <animate attributeName="opacity" values="1;0" keyTimes="0;1" dur="1s" begin="-0.2631578947368421s" repeatCount="indefinite"></animate>
  </rect>
</g><g transform="rotate(265.2631578947368 50 50)">
  <rect x="46.5" y="26" rx="3.5" ry="4" width="7" height="4" fill="#fff">
    <animate attributeName="opacity" values="1;0" keyTimes="0;1" dur="1s" begin="-0.25s" repeatCount="indefinite"></animate>
  </rect>
</g><g transform="rotate(270 50 50)">
  <rect x="46.5" y="26" rx="3.5" ry="4" width="7" height="4" fill="#fff">
    <animate attributeName="opacity" values="1;0" keyTimes="0;1" dur="1s" begin="-0.23684210526315788s" repeatCount="indefinite"></animate>
  </rect>
</g><g transform="rotate(274.7368421052632 50 50)">
  <rect x="46.5" y="26" rx="3.5" ry="4" width="7" height="4" fill="#fff">
    <animate attributeName="opacity" values="1;0" keyTimes="0;1" dur="1s" begin="-0.2236842105263158s" repeatCount="indefinite"></animate>
  </rect>
</g><g transform="rotate(279.4736842105263 50 50)">
  <rect x="46.5" y="26" rx="3.5" ry="4" width="7" height="4" fill="#fff">
    <animate attributeName="opacity" values="1;0" keyTimes="0;1" dur="1s" begin="-0.21052631578947367s" repeatCount="indefinite"></animate>
  </rect>
</g><g transform="rotate(284.2105263157895 50 50)">
  <rect x="46.5" y="26" rx="3.5" ry="4" width="7" height="4" fill="#fff">
    <animate attributeName="opacity" values="1;0" keyTimes="0;1" dur="1s" begin="-0.19736842105263158s" repeatCount="indefinite"></animate>
  </rect>
</g><g transform="rotate(288.94736842105266 50 50)">
  <rect x="46.5" y="26" rx="3.5" ry="4" width="7" height="4" fill="#fff">
    <animate attributeName="opacity" values="1;0" keyTimes="0;1" dur="1s" begin="-0.18421052631578946s" repeatCount="indefinite"></animate>
  </rect>
</g><g transform="rotate(293.6842105263158 50 50)">
  <rect x="46.5" y="26" rx="3.5" ry="4" width="7" height="4" fill="#fff">
    <animate attributeName="opacity" values="1;0" keyTimes="0;1" dur="1s" begin="-0.17105263157894737s" repeatCount="indefinite"></animate>
  </rect>
</g><g transform="rotate(298.42105263157896 50 50)">
  <rect x="46.5" y="26" rx="3.5" ry="4" width="7" height="4" fill="#fff">
    <animate attributeName="opacity" values="1;0" keyTimes="0;1" dur="1s" begin="-0.15789473684210525s" repeatCount="indefinite"></animate>
  </rect>
</g><g transform="rotate(303.1578947368421 50 50)">
  <rect x="46.5" y="26" rx="3.5" ry="4" width="7" height="4" fill="#fff">
    <animate attributeName="opacity" values="1;0" keyTimes="0;1" dur="1s" begin="-0.14473684210526316s" repeatCount="indefinite"></animate>
  </rect>
</g><g transform="rotate(307.89473684210526 50 50)">
  <rect x="46.5" y="26" rx="3.5" ry="4" width="7" height="4" fill="#fff">
    <animate attributeName="opacity" values="1;0" keyTimes="0;1" dur="1s" begin="-0.13157894736842105s" repeatCount="indefinite"></animate>
  </rect>
</g><g transform="rotate(312.63157894736844 50 50)">
  <rect x="46.5" y="26" rx="3.5" ry="4" width="7" height="4" fill="#fff">
    <animate attributeName="opacity" values="1;0" keyTimes="0;1" dur="1s" begin="-0.11842105263157894s" repeatCount="indefinite"></animate>
  </rect>
</g><g transform="rotate(317.36842105263156 50 50)">
  <rect x="46.5" y="26" rx="3.5" ry="4" width="7" height="4" fill="#fff">
    <animate attributeName="opacity" values="1;0" keyTimes="0;1" dur="1s" begin="-0.10526315789473684s" repeatCount="indefinite"></animate>
  </rect>
</g><g transform="rotate(322.10526315789474 50 50)">
  <rect x="46.5" y="26" rx="3.5" ry="4" width="7" height="4" fill="#fff">
    <animate attributeName="opacity" values="1;0" keyTimes="0;1" dur="1s" begin="-0.09210526315789473s" repeatCount="indefinite"></animate>
  </rect>
</g><g transform="rotate(326.8421052631579 50 50)">
  <rect x="46.5" y="26" rx="3.5" ry="4" width="7" height="4" fill="#fff">
    <animate attributeName="opacity" values="1;0" keyTimes="0;1" dur="1s" begin="-0.07894736842105263s" repeatCount="indefinite"></animate>
  </rect>
</g><g transform="rotate(331.57894736842104 50 50)">
  <rect x="46.5" y="26" rx="3.5" ry="4" width="7" height="4" fill="#fff">
    <animate attributeName="opacity" values="1;0" keyTimes="0;1" dur="1s" begin="-0.06578947368421052s" repeatCount="indefinite"></animate>
  </rect>
</g><g transform="rotate(336.3157894736842 50 50)">
  <rect x="46.5" y="26" rx="3.5" ry="4" width="7" height="4" fill="#fff">
    <animate attributeName="opacity" values="1;0" keyTimes="0;1" dur="1s" begin="-0.05263157894736842s" repeatCount="indefinite"></animate>
  </rect>
</g><g transform="rotate(341.05263157894734 50 50)">
  <rect x="46.5" y="26" rx="3.5" ry="4" width="7" height="4" fill="#fff">
    <animate attributeName="opacity" values="1;0" keyTimes="0;1" dur="1s" begin="-0.039473684210526314s" repeatCount="indefinite"></animate>
  </rect>
</g><g transform="rotate(345.7894736842105 50 50)">
  <rect x="46.5" y="26" rx="3.5" ry="4" width="7" height="4" fill="#fff">
    <animate attributeName="opacity" values="1;0" keyTimes="0;1" dur="1s" begin="-0.02631578947368421s" repeatCount="indefinite"></animate>
  </rect>
</g><g transform="rotate(350.5263157894737 50 50)">
  <rect x="46.5" y="26" rx="3.5" ry="4" width="7" height="4" fill="#fff">
    <animate attributeName="opacity" values="1;0" keyTimes="0;1" dur="1s" begin="-0.013157894736842105s" repeatCount="indefinite"></animate>
  </rect>
</g><g transform="rotate(355.2631578947368 50 50)">
  <rect x="46.5" y="26" rx="3.5" ry="4" width="7" height="4" fill="#fff">
    <animate attributeName="opacity" values="1;0" keyTimes="0;1" dur="1s" begin="0s" repeatCount="indefinite"></animate>
  </rect>
</g>
<!-- [ldio] generated by https://loading.io/ --></svg>