<svg xmlns="http://www.w3.org/2000/svg" viewBox="0 0 460.3 351.36"><defs><style>.cls-1,.cls-7{fill:#62626a;}.cls-1,.cls-2,.cls-3,.cls-4,.cls-5,.cls-6{fill-rule:evenodd;}.cls-3{fill:#fdb;}.cls-4{fill:#a5a9aa;}.cls-5{fill:#6bb5fb;}.cls-6,.cls-8{fill:#fff;}.cls-8{stroke:#62626a;stroke-miterlimit:10;stroke-width:2px;}.cls-9{fill:#ff9e9d;}</style></defs><title>user-management</title><g id="Capa_1" data-name="Capa 1"><path class="cls-1" d="M141.41,198.42a3.42,3.42,0,1,1,0-6.83h103.4a3.42,3.42,0,1,1,0,6.83Z" transform="translate(-0.01 -17.67)"/><path class="cls-1" d="M141.41,220.79a3.42,3.42,0,1,1,0-6.83H316.77a3.42,3.42,0,0,1,0,6.83Z" transform="translate(-0.01 -17.67)"/><path class="cls-1" d="M141.41,243.19a3.42,3.42,0,1,1,0-6.83h103.4a3.42,3.42,0,1,1,0,6.83Z" transform="translate(-0.01 -17.67)"/><path class="cls-1" d="M141.41,265.57a3.42,3.42,0,1,1,0-6.83H316.77a3.42,3.42,0,0,1,0,6.83Z" transform="translate(-0.01 -17.67)"/><path class="cls-1" d="M141.41,287.94a3.4,3.4,0,1,1,0-6.8h103.4a3.4,3.4,0,1,1,0,6.8Z" transform="translate(-0.01 -17.67)"/><path class="cls-2" d="M233.24,350.18a4.5,4.5,0,0,0-3.22-1.33,4.54,4.54,0,0,0-4.58,4.58,4.5,4.5,0,0,0,1.33,3.22A4.58,4.58,0,0,0,230,358a4.64,4.64,0,0,0,4.58-4.58A4.58,4.58,0,0,0,233.24,350.18Z" transform="translate(-0.01 -17.67)"/><path class="cls-3" d="M357.08,146.61a2.69,2.69,0,0,1-.59-.27,10.16,10.16,0,0,0-3.88-1,3.7,3.7,0,0,0-1.95.63,5.11,5.11,0,0,0-1.58,1.95,13.32,13.32,0,0,0-1.11,6.24,27.12,27.12,0,0,0,3.75,12.24,72.27,72.27,0,0,0,8.94,12.25c2.8,3,5.83,5.88,8.8,8.77l3.85,3.8A3.41,3.41,0,0,1,370,197l-8.44-2.25q0,52.1,0,104.21l13.16,3.5L390,298.49l24.23-90.41L411,206.33a3.48,3.48,0,0,1-1.78-2.83c-.91-18.8-9.77-22.49-18-25.93-5.64-2.36-11.08-4.61-14.74-10.39C369.07,155.53,362.41,149.17,357.08,146.61Z" transform="translate(-0.01 -17.67)"/><path class="cls-3" d="M103.54,146.34a2.67,2.67,0,0,1-.58.25c-5.33,2.58-12,8.94-19.4,20.59-3.7,5.78-9.11,8-14.77,10.39-8.27,3.44-17.1,7.13-18,25.93A3.45,3.45,0,0,1,49,206.33l-3.25,1.75L70,298.49l15.3,3.94,13.13-3.5V194.72L90,197a3.4,3.4,0,0,1-3.25-5.72l3.86-3.77c2.91-2.86,5.86-5.72,8.63-8.66.09-.11.2-.23.31-.34,7.38-7.82,13.38-15.93,13.63-24.31a11.33,11.33,0,0,0-1.64-6.89,4.5,4.5,0,0,0-2.91-1.83A9.22,9.22,0,0,0,103.54,146.34Z" transform="translate(-0.01 -17.67)"/><path class="cls-4" d="M117.65,144.25V37a3.4,3.4,0,0,1,3.41-3.41H339A3.4,3.4,0,0,1,342.36,37V144.26c.23-.34.45-.67.67-1a11.31,11.31,0,0,1,7.27-4.55,12,12,0,0,1,2.42-.17h.22a14.5,14.5,0,0,1,1.83.14V45.18a28.66,28.66,0,0,0-7.47-19.52,24.16,24.16,0,0,0-17.71-8H130.44a24.12,24.12,0,0,0-17.71,8,28.59,28.59,0,0,0-7.49,19.52v93.58a13.56,13.56,0,0,1,4.49,0,11.31,11.31,0,0,1,7.28,4.55C117.23,143.59,117.45,143.92,117.65,144.25Z" transform="translate(-0.01 -17.67)"/><path class="cls-4" d="M105.24,301.35v40.17a28.69,28.69,0,0,0,7.49,19.54,24.12,24.12,0,0,0,17.71,8H329.59a24.14,24.14,0,0,0,17.71-8,28.77,28.77,0,0,0,7.47-19.54V182.34c-5.22-5.63-9.8-11.49-12.41-17.79v168.5a3.4,3.4,0,0,1-3.41,3.39H121.06a3.4,3.4,0,0,1-3.41-3.39V164.55c-2.61,6.3-7.17,12.16-12.41,17.79v119Z" transform="translate(-0.01 -17.67)"/><path class="cls-5" d="M40.86,216.1,39,209.3,0,219.73l26.39,98.5,15-4A24.84,24.84,0,0,0,59,283.78Z" transform="translate(-0.01 -17.67)"/><path class="cls-2" d="M411,211.73" transform="translate(-0.01 -17.67)"/><path class="cls-6" d="M44.08,294.85a4.22,4.22,0,0,0-1.39-5.6l-.14-.06a4.1,4.1,0,0,0-3-.44l-.11,0a4.19,4.19,0,0,0-2.94,5l0,.08a4.18,4.18,0,0,0,2,2.5,4.08,4.08,0,0,0,3.13.42A4.26,4.26,0,0,0,44.08,294.85Z" transform="translate(-0.01 -17.67)"/><path class="cls-6" d="M230,342a11.37,11.37,0,1,1-8.08,3.33A11.35,11.35,0,0,1,230,342Z" transform="translate(-0.01 -17.67)"/><path id="gordomanga" class="cls-6" d="M51.08,289.94a11.07,11.07,0,0,1-1.11,8.3,10.91,10.91,0,0,1-6.64,5.11A10.94,10.94,0,0,1,29.9,295.6v-.05a11,11,0,0,1,7.74-13.35A11,11,0,0,1,46,283.28l.17.11A11,11,0,0,1,51.08,289.94Z" transform="translate(-0.01 -17.67)"/><path class="cls-5" d="M401.34,285.81a24.85,24.85,0,0,0,17.56,30.41l15,4,26.38-98.49-39-10.44-1.84,6.8Z" transform="translate(-0.01 -17.67)"/><path id="gordomanga-2" data-name="gordomanga" class="cls-6" d="M414.19,285.41l.17-.11a11.06,11.06,0,0,1,8.32-1.08,11,11,0,0,1,7.75,13.35v.06A10.94,10.94,0,0,1,417,305.37a10.86,10.86,0,0,1-6.63-5.1,10.93,10.93,0,0,1,3.83-14.86Z" transform="translate(-0.01 -17.67)"/></g><g id="Capa_2" data-name="Capa 2"><g id="Layer_2" data-name="Layer 2"><g id="Layer_1-2" data-name="Layer 1-2"><path id="Fondo" class="cls-7" d="M294.46,109.44a59.94,59.94,0,0,1-31.4,52.67H206.15a59.85,59.85,0,1,1,88.31-52.67Z" transform="translate(-0.01 -17.67)"/><path class="cls-8" d="M247.49,114.43c-1.92-.39-3.85-.68-5.79-.89v-8.89H227.34v8.89q-2.91.31-5.79.89l-8,1.59a13,13,0,0,0,12.82,10.53h17a13,13,0,0,0,12.79-10.39Z" transform="translate(-0.01 -17.67)"/><path class="cls-8" d="M260.37,117l-4.13-.82-8.66-1.73c-1.92-.39-3.85-.68-5.79-.89V102.26H227.42v11.28q-2.91.31-5.79.89l-8,1.59-4.82,1a12.64,12.64,0,0,0-10.15,12.39v32.74h71.83V129.37A12.64,12.64,0,0,0,260.37,117Z" transform="translate(-0.01 -17.67)"/><path class="cls-8" d="M215.45,133.38v7.52a11.48,11.48,0,0,0,0,14v7.18" transform="translate(-0.01 -17.67)"/><rect class="cls-7" x="253.74" y="118.1" width="16.76" height="7.18"/><rect class="cls-7" x="263.32" y="113.32" width="7.18" height="16.76"/><path class="cls-8" d="M253.76,133.38v28.73" transform="translate(-0.01 -17.67)"/><circle class="cls-8" cx="250.15" cy="73.82" r="3.59"/><circle class="cls-8" cx="219.03" cy="73.82" r="3.59"/><path class="cls-8" d="M249,80.71V95.08a14.36,14.36,0,0,1-14.37,14.36h0a14.36,14.36,0,0,1-14.36-14.36V80.71" transform="translate(-0.01 -17.67)"/><path class="cls-8" d="M239.39,97.47h0a4.79,4.79,0,1,1-9.57,0" transform="translate(-0.01 -17.67)"/><circle class="cls-7" cx="240.58" cy="71.42" r="1.2"/><circle class="cls-7" cx="228.61" cy="71.42" r="1.2"/><rect class="cls-9" x="265.71" y="115.71" width="4.79" height="11.97"/><path class="cls-9" d="M250.22,59.21c-2.54,1-4.94,3.07-6.16,3.8-2.43,1.45-4.45-3.41-3.8-6.17a5.12,5.12,0,0,1,6.16-3.8C249.17,53.69,252.84,58.14,250.22,59.21Z" transform="translate(-0.01 -17.67)"/><path class="cls-9" d="M244.11,68.11,244,68a7.18,7.18,0,0,0-11.4-7.33,4.45,4.45,0,0,1-2.75.88h0a7.18,7.18,0,0,0-7.19,7.18h0a.56.56,0,0,1-.35.54,7.19,7.19,0,1,0,8.27,11.23,7.14,7.14,0,0,0,5.25-.76,7.27,7.27,0,0,0,3,.94,7.18,7.18,0,1,0,6.94-11.77A3.72,3.72,0,0,1,244.11,68.11Z" transform="translate(-0.01 -17.67)"/><rect class="cls-8" x="217.83" y="60.65" width="33.52" height="4.79"/><rect class="cls-7" x="240.09" y="56.2" width="2.91" height="9.44" transform="translate(39.61 189.13) rotate(-50)"/></g></g></g></svg>