<?xml version="1.0" encoding="utf-8"?>
<!-- Generator: Adobe Illustrator 23.0.5, SVG Export Plug-In . SVG Version: 6.00 Build 0)  -->
<svg version="1.1" id="Capa_1" xmlns="http://www.w3.org/2000/svg" xmlns:xlink="http://www.w3.org/1999/xlink" x="0px" y="0px"
	 viewBox="0 0 472.4 386.1" style="enable-background:new 0 0 472.4 386.1;" xml:space="preserve">
<style type="text/css">
	.st0{fill-rule:evenodd;clip-rule:evenodd;fill:#62626A;}
	.st1{fill-rule:evenodd;clip-rule:evenodd;}
	.st2{fill-rule:evenodd;clip-rule:evenodd;fill:#FFDDBB;}
	.st3{fill-rule:evenodd;clip-rule:evenodd;fill:#A5A9AA;}
	.st4{fill-rule:evenodd;clip-rule:evenodd;fill:#6BB5FB;}
	.st5{fill-rule:evenodd;clip-rule:evenodd;fill:#FFFFFF;}
	.st6{fill:#62626A;}
	.st7{fill:#FFFFFF;stroke:#62626A;stroke-width:2;stroke-miterlimit:10;}
	.st8{fill:#FF9E9D;}
</style>
<path class="st0" d="M148.5,201.1c-1.9,0-3.4-1.5-3.4-3.4c0-1.9,1.5-3.4,3.4-3.4h103.4c1.9,0,3.4,1.5,3.4,3.4c0,1.9-1.5,3.4-3.4,3.4
	H148.5z"/>
<path class="st0" d="M148.5,223.5c-1.9,0-3.4-1.5-3.4-3.4c0-1.9,1.5-3.4,3.4-3.4h175.4c1.9,0,3.4,1.6,3.4,3.4c0,1.9-1.5,3.4-3.4,3.4
	H148.5z"/>
<path class="st0" d="M148.5,245.9c-1.9,0-3.4-1.6-3.4-3.4c0-1.9,1.5-3.4,3.4-3.4h103.4c1.9,0,3.4,1.5,3.4,3.4c0,1.9-1.5,3.4-3.4,3.4
	H148.5z"/>
<path class="st0" d="M148.5,268.2c-1.9,0-3.4-1.5-3.4-3.4c0-1.9,1.5-3.4,3.4-3.4h175.4c1.9,0,3.4,1.5,3.4,3.4c0,1.9-1.5,3.4-3.4,3.4
	H148.5z"/>
<path class="st0" d="M148.5,290.6c-1.9,0-3.4-1.5-3.4-3.4c0-1.9,1.5-3.4,3.4-3.4h103.4c1.9,0,3.4,1.5,3.4,3.4c0,1.9-1.5,3.4-3.4,3.4
	H148.5z"/>
<path class="st1" d="M240.4,352.8c-0.8-0.8-2-1.3-3.2-1.3c-1.3,0-2.4,0.5-3.2,1.3c-0.8,0.8-1.3,2-1.3,3.2c0,1.2,0.5,2.4,1.3,3.2
	c0.8,0.8,2,1.4,3.2,1.4c1.2,0,2.4-0.5,3.2-1.4c0.8-0.8,1.4-2,1.4-3.2C241.7,354.8,241.2,353.7,240.4,352.8z"/>
<path class="st2" d="M364.2,149.3c-0.2-0.1-0.4-0.2-0.6-0.3c-1.4-0.6-2.7-0.9-3.9-1c-0.7,0-1.4,0.3-1.9,0.6
	c-0.6,0.4-1.2,1.1-1.6,1.9c-0.8,1.6-1.2,3.7-1.1,6.2c0.1,4.2,1.6,8.2,3.7,12.2c2.3,4.2,5.5,8.2,8.9,12.2c2.8,3,5.8,5.9,8.8,8.8
	l3.9,3.8c1.3,1.3,1.4,3.5,0,4.8c-0.9,0.9-2.1,1.2-3.3,0.9l-8.4-2.2c0,34.7,0,69.5,0,104.2l13.2,3.5l15.3-3.9l24.2-90.4l-3.2-1.7
	c-1.1-0.6-1.7-1.7-1.8-2.8c-0.9-18.8-9.8-22.5-18-25.9c-5.6-2.4-11.1-4.6-14.7-10.4C376.2,158.2,369.5,151.8,364.2,149.3z"/>
<path class="st2" d="M110.7,149c-0.2,0.1-0.4,0.2-0.6,0.3c-5.3,2.6-12,8.9-19.4,20.6c-3.7,5.8-9.1,8-14.8,10.4
	c-8.3,3.4-17.1,7.1-18,25.9c-0.1,1.1-0.7,2.2-1.8,2.8l-3.2,1.7l24.2,90.4l15.3,3.9l13.1-3.5V197.4l-8.4,2.2c-1.1,0.3-2.4,0-3.3-0.9
	c-1.3-1.3-1.3-3.5,0.1-4.8l3.9-3.8c2.9-2.9,5.9-5.7,8.6-8.7c0.1-0.1,0.2-0.2,0.3-0.3c7.4-7.8,13.4-15.9,13.6-24.3
	c0.1-2.9-0.5-5.3-1.6-6.9c-0.7-1-1.7-1.6-2.9-1.8C114.3,147.9,112.6,148.1,110.7,149z"/>
<path class="st3" d="M124.8,146.9V39.7c0-1.9,1.5-3.4,3.4-3.4h217.9c1.9,0,3.4,1.5,3.4,3.4v107.3c0.2-0.3,0.4-0.7,0.7-1
	c1.8-2.4,4.2-4,7.3-4.6c0.8-0.1,1.6-0.2,2.4-0.2h0.1h0h0h0h0.1h0c0.6,0,1.2,0.1,1.8,0.1V47.8c0-7.6-2.9-14.5-7.5-19.5
	c-4.6-4.9-10.8-8-17.7-8H137.6c-6.9,0-13.2,3.1-17.7,8c-4.6,5-7.5,11.9-7.5,19.5v93.6c1.6-0.3,3.1-0.3,4.5,0c3,0.5,5.5,2.1,7.3,4.6
	C124.3,146.3,124.6,146.6,124.8,146.9z"/>
<path class="st3" d="M112.4,304L112.4,304v0.2v0.1v39.9c0,7.6,2.9,14.5,7.5,19.5c4.6,4.9,10.8,8,17.7,8h199.1c6.9,0,13.2-3.1,17.7-8
	c4.6-5,7.5-11.9,7.5-19.5v-39.9v-0.1V192.9V185c-5.2-5.6-9.8-11.5-12.4-17.8v168.5c0,1.9-1.5,3.4-3.4,3.4H128.2
	c-1.9,0-3.4-1.5-3.4-3.4V167.2c-2.6,6.3-7.2,12.2-12.4,17.8v7.9v0.1v0.1L112.4,304L112.4,304z"/>
<path class="st4" d="M48,218.8l-1.8-6.8l-39,10.4l26.4,98.5l15-4c13.2-3.6,21.1-17.2,17.6-30.4L48,218.8z"/>
<path class="st1" d="M418.1,214.4"/>
<path class="st5" d="M51.2,297.5c0.5-0.9,0.7-2.1,0.4-3.2c-0.3-1.1-0.9-1.9-1.8-2.4l-0.1-0.1c-0.9-0.5-2-0.7-3.1-0.4l-0.1,0
	c-1.1,0.3-2,1-2.5,1.9c-0.5,0.9-0.7,2-0.4,3.1l0,0.1c0.3,1.1,1,2,1.9,2.5s2,0.7,3.1,0.4C49.8,299.1,50.7,298.4,51.2,297.5z"/>
<path class="st5" d="M237.1,344.7c3.1,0,6,1.3,8.1,3.3c2.1,2.1,3.4,4.9,3.4,8.1c0,3.1-1.3,6-3.4,8.1c-2.1,2.1-4.9,3.4-8.1,3.4
	c-3.2,0-6-1.3-8.1-3.4c-2.1-2.1-3.3-4.9-3.3-8.1c0-3.2,1.3-6,3.3-8.1C231.1,346,234,344.7,237.1,344.7z"/>
<path id="gordomanga_4_" class="st5" d="M58.2,292.6c0.8,2.9,0.3,5.9-1.1,8.3c-1.4,2.4-3.7,4.3-6.6,5.1c-2.9,0.8-5.9,0.3-8.3-1.1
	c-2.4-1.4-4.3-3.7-5.1-6.7v-0.1c-0.8-2.9-0.3-5.8,1.1-8.2c1.4-2.4,3.7-4.3,6.6-5.1s5.9-0.3,8.3,1.1l0.2,0.1
	C55.6,287.5,57.4,289.7,58.2,292.6z"/>
<path class="st4" d="M408.5,288.5c-3.5,13.2,4.3,26.9,17.6,30.4l15,4l26.4-98.5l-39-10.4l-1.8,6.8L408.5,288.5z"/>
<path id="gordomanga_1_" class="st5" d="M421.3,288.1l0.2-0.1c2.4-1.4,5.4-1.9,8.3-1.1s5.2,2.7,6.6,5.1c1.4,2.4,1.9,5.4,1.1,8.2v0.1
	c-0.8,2.9-2.7,5.2-5.1,6.7c-2.4,1.4-5.4,1.9-8.3,1.1c-2.9-0.8-5.2-2.7-6.6-5.1c-1.4-2.4-1.9-5.4-1.1-8.3
	C417.1,291.8,419,289.5,421.3,288.1z"/>
<g id="Capa_2">
	<g id="Layer_2">
		<g id="Layer_1-2">
			<path id="Fondo" class="st6" d="M301.6,112.1c0,22-12.1,42.2-31.4,52.7h-56.9c-29.1-15.7-39.9-52-24.2-81.1s52-39.9,81.1-24.2
				C289.5,69.9,301.6,90.1,301.6,112.1z"/>
			<path class="st7" d="M254.6,117.1c-1.9-0.4-3.8-0.7-5.8-0.9v-8.9h-14.4v8.9c-1.9,0.2-3.9,0.5-5.8,0.9l-8,1.6
				c1.2,6.1,6.6,10.5,12.8,10.5h17c6.2,0,11.5-4.3,12.8-10.4L254.6,117.1z"/>
			<path class="st7" d="M267.5,119.6l-4.1-0.8l-8.7-1.7c-1.9-0.4-3.8-0.7-5.8-0.9v-11.3h-14.4v11.3c-1.9,0.2-3.9,0.5-5.8,0.9l-8,1.6
				l-4.8,1c-5.9,1.2-10.2,6.4-10.1,12.4v32.7h71.8V132C277.6,126,273.4,120.8,267.5,119.6z"/>
			<path class="st7" d="M222.6,136v7.5c-3.2,4.1-3.2,9.9,0,14v7.2"/>
			<rect x="260.9" y="138.4" class="st6" width="16.8" height="7.2"/>
			<rect x="270.5" y="133.7" class="st6" width="7.2" height="16.8"/>
			<path class="st7" d="M260.9,136v7.5v14v7.2"/>
			<circle class="st7" cx="257.3" cy="94.2" r="3.6"/>
			<circle class="st7" cx="226.2" cy="94.2" r="3.6"/>
			<path class="st7" d="M256.1,83.4v14.4c0,7.9-6.4,14.4-14.4,14.4l0,0c-7.9,0-14.4-6.4-14.4-14.4V83.4"/>
			<path class="st7" d="M246.5,100.1L246.5,100.1c0,2.6-2.1,4.8-4.8,4.8c-2.6,0-4.8-2.1-4.8-4.8"/>
			<circle class="st6" cx="247.7" cy="91.8" r="1.2"/>
			<circle class="st6" cx="235.7" cy="91.8" r="1.2"/>
			<rect x="272.8" y="136" class="st8" width="4.8" height="12"/>
			<path class="st8" d="M257.3,61.9c-2.5,1-4.9,3.1-6.2,3.8c-2.4,1.5-4.5-3.4-3.8-6.2c0.7-2.8,3.4-4.5,6.2-3.8
				C256.3,56.4,260,60.8,257.3,61.9z"/>
			<path class="st8" d="M251.2,70.8l-0.1-0.1c0.9-3.9-1.5-7.7-5.3-8.6c-2.1-0.5-4.4,0-6.1,1.3c-0.8,0.6-1.8,0.9-2.8,0.9h0
				c-4,0-7.2,3.2-7.2,7.2l0,0c0,0.2-0.1,0.4-0.3,0.5c-3.7,1.5-5.4,5.7-3.9,9.4c1.5,3.7,5.7,5.4,9.4,3.9c1.1-0.4,2-1.1,2.8-2
				c1.8,0.4,3.7,0.2,5.3-0.8c0.9,0.5,1.9,0.9,3,0.9c2.6,3,7.2,3.2,10.1,0.6c3-2.6,3.2-7.2,0.6-10.1c-1-1.1-2.3-1.9-3.8-2.2
				C252.3,71.5,251.7,71.2,251.2,70.8z"/>
			<rect x="225" y="81" class="st7" width="33.5" height="4.8"/>
			
				<rect x="247.2" y="58.9" transform="matrix(0.6428 -0.766 0.766 0.6428 40.1182 213.2004)" class="st6" width="2.9" height="9.4"/>
		</g>
	</g>
</g>
</svg>
