<svg xmlns="http://www.w3.org/2000/svg" viewBox="0 0 460.3 351.36"><defs><style>.cls-1,.cls-7{fill:#62626a;}.cls-1,.cls-2,.cls-3,.cls-4,.cls-5,.cls-6{fill-rule:evenodd;}.cls-3{fill:#fdb;}.cls-4{fill:#a5a9aa;}.cls-5{fill:#6bb5fb;}.cls-6,.cls-8{fill:#fff;}.cls-8{stroke:#62626a;stroke-miterlimit:10;stroke-width:2px;}.cls-9{fill:#ff9e9d;}</style></defs><title>user-management</title><g id="Capa_1" data-name="Capa 1"><path class="cls-1" d="M167.41,247.77a3.42,3.42,0,0,1,0-6.83h103.4a3.42,3.42,0,1,1,0,6.83Z" transform="translate(-26.01 -67.02)"/><path class="cls-1" d="M167.41,270.14a3.42,3.42,0,0,1,0-6.83H342.77a3.42,3.42,0,0,1,0,6.83Z" transform="translate(-26.01 -67.02)"/><path class="cls-1" d="M167.41,292.55a3.42,3.42,0,0,1,0-6.83h103.4a3.42,3.42,0,1,1,0,6.83Z" transform="translate(-26.01 -67.02)"/><path class="cls-1" d="M167.41,314.92a3.42,3.42,0,0,1,0-6.83H342.77a3.42,3.42,0,0,1,0,6.83Z" transform="translate(-26.01 -67.02)"/><path class="cls-1" d="M167.41,337.3a3.41,3.41,0,1,1,0-6.81h103.4a3.41,3.41,0,1,1,0,6.81Z" transform="translate(-26.01 -67.02)"/><path class="cls-2" d="M259.24,399.53A4.5,4.5,0,0,0,256,398.2a4.54,4.54,0,0,0-4.58,4.58,4.48,4.48,0,0,0,1.33,3.22,4.58,4.58,0,0,0,3.25,1.36,4.64,4.64,0,0,0,4.58-4.58A4.6,4.6,0,0,0,259.24,399.53Z" transform="translate(-26.01 -67.02)"/><path class="cls-3" d="M383.08,196a2.7,2.7,0,0,1-.59-.28,10.35,10.35,0,0,0-3.88-1,3.8,3.8,0,0,0-1.95.64,5.07,5.07,0,0,0-1.58,1.94,13.47,13.47,0,0,0-1.11,6.25,27.2,27.2,0,0,0,3.75,12.24A72.61,72.61,0,0,0,386.66,228c2.8,3,5.83,5.89,8.8,8.77l3.86,3.81a3.42,3.42,0,0,1-3.28,5.72l-8.44-2.25q0,52.08,0,104.21l13.16,3.5,15.27-4,24.23-90.41L437,255.68a3.47,3.47,0,0,1-1.78-2.83c-.91-18.79-9.77-22.49-18-25.93-5.63-2.36-11.08-4.61-14.74-10.38C395.07,204.88,388.41,198.52,383.08,196Z" transform="translate(-26.01 -67.02)"/><path class="cls-3" d="M129.54,195.69a2.67,2.67,0,0,1-.58.25c-5.33,2.58-12,8.94-19.4,20.6-3.69,5.77-9.11,8-14.77,10.38-8.27,3.44-17.1,7.14-18,25.93A3.43,3.43,0,0,1,75,255.68l-3.25,1.75L96,347.84l15.3,4,13.13-3.5V244.08L116,246.33a3.41,3.41,0,0,1-3.25-5.72l3.86-3.78c2.91-2.86,5.86-5.72,8.63-8.66.09-.11.2-.22.31-.33,7.38-7.83,13.38-15.94,13.63-24.32a11.31,11.31,0,0,0-1.64-6.88,4.51,4.51,0,0,0-2.91-1.84A9.22,9.22,0,0,0,129.54,195.69Z" transform="translate(-26.01 -67.02)"/><path class="cls-4" d="M143.65,193.61V86.34a3.41,3.41,0,0,1,3.41-3.41H365a3.41,3.41,0,0,1,3.41,3.41V193.61c.23-.33.45-.67.67-1a11.23,11.23,0,0,1,7.27-4.55,11.36,11.36,0,0,1,2.42-.17h.22a12.85,12.85,0,0,1,1.83.14V94.53A28.68,28.68,0,0,0,373.31,75a24.17,24.17,0,0,0-17.72-8H156.44a24.11,24.11,0,0,0-17.71,8,28.56,28.56,0,0,0-7.49,19.51v93.58a13.6,13.6,0,0,1,4.5,0,11.23,11.23,0,0,1,7.27,4.55C143.23,192.94,143.45,193.28,143.65,193.61Z" transform="translate(-26.01 -67.02)"/><path class="cls-4" d="M131.24,350.7v40.17a28.7,28.7,0,0,0,7.49,19.55,24.11,24.11,0,0,0,17.71,8H355.59a24.17,24.17,0,0,0,17.72-8,28.82,28.82,0,0,0,7.46-19.55V231.7c-5.22-5.64-9.8-11.5-12.41-17.8V382.41a3.4,3.4,0,0,1-3.41,3.38H147.06a3.4,3.4,0,0,1-3.41-3.38V213.9c-2.61,6.3-7.17,12.16-12.41,17.8v119Z" transform="translate(-26.01 -67.02)"/><path class="cls-5" d="M66.86,265.45,65,258.65,26,269.09,52.4,367.58l15-4A24.83,24.83,0,0,0,85,333.14Z" transform="translate(-26.01 -67.02)"/><path class="cls-2" d="M437,261.09" transform="translate(-26.01 -67.02)"/><path class="cls-6" d="M70.08,344.21a4.23,4.23,0,0,0-1.39-5.61l-.13-.05a4.14,4.14,0,0,0-3.06-.45l-.11,0a4.19,4.19,0,0,0-2.5,1.94,4.23,4.23,0,0,0-.44,3.05l0,.09a4.19,4.19,0,0,0,1.94,2.5,4.1,4.1,0,0,0,3.14.41A4.21,4.21,0,0,0,70.08,344.21Z" transform="translate(-26.01 -67.02)"/><path class="cls-6" d="M256,391.37a11.37,11.37,0,1,1-8.08,3.33A11.38,11.38,0,0,1,256,391.37Z" transform="translate(-26.01 -67.02)"/><path id="gordomanga" class="cls-6" d="M77.08,339.3A11,11,0,0,1,76,347.59a10.84,10.84,0,0,1-6.64,5.11A10.93,10.93,0,0,1,55.9,345v-.06a11,11,0,0,1,7.74-13.35A11,11,0,0,1,72,332.63l.17.11A11.07,11.07,0,0,1,77.08,339.3Z" transform="translate(-26.01 -67.02)"/><path class="cls-5" d="M427.34,335.16a24.86,24.86,0,0,0,17.56,30.42l15,4,26.38-98.5-39-10.43-1.84,6.8Z" transform="translate(-26.01 -67.02)"/><path id="gordomanga-2" data-name="gordomanga" class="cls-6" d="M440.19,334.77l.17-.11a11.07,11.07,0,0,1,8.32-1.09,11,11,0,0,1,7.75,13.36V347a11,11,0,1,1-16.24-12.21Z" transform="translate(-26.01 -67.02)"/></g><g id="Capa_2" data-name="Capa 2"><g id="Layer_2" data-name="Layer 2"><g id="Layer_1-2" data-name="Layer 1-2"><path id="Fondo" class="cls-7" d="M320.46,158.79a59.91,59.91,0,0,1-31.4,52.67H232.15a59.85,59.85,0,1,1,88.31-52.67Z" transform="translate(-26.01 -67.02)"/><path class="cls-8" d="M273.49,163.78q-2.87-.57-5.79-.89V154H253.34v8.88c-1.94.22-3.87.51-5.79.89l-8,1.59a13.07,13.07,0,0,0,12.82,10.54h17a13.06,13.06,0,0,0,12.79-10.4Z" transform="translate(-26.01 -67.02)"/><path class="cls-8" d="M286.37,166.34l-4.13-.83-8.66-1.73q-2.88-.57-5.79-.89V151.61H253.42v11.28c-1.94.22-3.87.51-5.79.89l-8,1.59-4.82,1a12.62,12.62,0,0,0-10.14,12.39v32.74h71.82V178.72A12.63,12.63,0,0,0,286.37,166.34Z" transform="translate(-26.01 -67.02)"/><path class="cls-8" d="M241.45,182.73v7.53a11.47,11.47,0,0,0,0,14v7.18" transform="translate(-26.01 -67.02)"/><rect class="cls-7" x="253.74" y="118.1" width="16.76" height="7.18"/><rect class="cls-7" x="263.32" y="113.32" width="7.18" height="16.76"/><path class="cls-8" d="M279.76,182.73v28.73" transform="translate(-26.01 -67.02)"/><circle class="cls-8" cx="250.15" cy="73.82" r="3.59"/><circle class="cls-8" cx="219.03" cy="73.82" r="3.59"/><path class="cls-8" d="M275,130.06v14.37a14.36,14.36,0,0,1-14.36,14.36h0a14.36,14.36,0,0,1-14.37-14.36V130.06" transform="translate(-26.01 -67.02)"/><path class="cls-8" d="M265.39,146.82h0a4.79,4.79,0,1,1-9.57,0" transform="translate(-26.01 -67.02)"/><circle class="cls-7" cx="240.58" cy="71.42" r="1.2"/><circle class="cls-7" cx="228.61" cy="71.42" r="1.2"/><rect class="cls-9" x="265.71" y="115.71" width="4.79" height="11.97"/><path class="cls-9" d="M276.22,108.56c-2.54,1-4.93,3.07-6.16,3.8-2.43,1.45-4.45-3.41-3.8-6.16a5.13,5.13,0,0,1,6.16-3.81C275.18,103.05,278.84,107.49,276.22,108.56Z" transform="translate(-26.01 -67.02)"/><path class="cls-9" d="M270.11,117.47l-.12-.11a7.18,7.18,0,0,0-11.4-7.32,4.43,4.43,0,0,1-2.76.87h0a7.18,7.18,0,0,0-7.18,7.18h0a.58.58,0,0,1-.35.54,7.18,7.18,0,1,0,8.26,11.23,7.18,7.18,0,0,0,5.25-.75,7.11,7.11,0,0,0,3,.93,7.18,7.18,0,1,0,6.94-11.77A3.71,3.71,0,0,1,270.11,117.47Z" transform="translate(-26.01 -67.02)"/><rect class="cls-8" x="217.83" y="60.65" width="33.52" height="4.79"/><rect class="cls-7" x="266.09" y="105.55" width="2.91" height="9.44" transform="translate(-14.92 177.32) rotate(-50)"/></g></g></g></svg>