<?xml version="1.0" encoding="utf-8"?>
<!-- Generator: Adobe Illustrator 23.0.5, SVG Export Plug-In . SVG Version: 6.00 Build 0)  -->
<svg version="1.1" id="Capa_1" xmlns="http://www.w3.org/2000/svg" xmlns:xlink="http://www.w3.org/1999/xlink" x="0px" y="0px"
	 viewBox="0 0 500 474.5" style="enable-background:new 0 0 500 474.5;" xml:space="preserve">
<style type="text/css">
	.st0{fill:#62626A;}
	.st1{fill:#FF9E9D;}
	.st2{fill:#FFFFFF;stroke:#62626A;stroke-width:9;stroke-miterlimit:10;}
	.st3{display:none;fill:#62626A;}
</style>
<title></title>
<g id="Layer_2">
	<g id="Layer_1-2">
		<path class="st0" d="M500,250c0,91.8-50.4,176.3-131.1,220H131.1C9.7,404.4-35.6,252.7,30.1,131.2S247.4-35.5,368.9,30.1
			C449.6,73.8,500,158.2,500,250z"/>
		<path class="st1" d="M315.2,40.2c-10.6,4.3-20.6,12.8-25.7,15.9c-10.1,6.1-18.6-14.3-15.9-25.7c2.7-11.5,14.2-18.6,25.7-15.9
			C310.9,17.2,326.2,35.7,315.2,40.2z"/>
		<path class="st1" d="M289.7,77.4l-0.5-0.4c3.8-16.1-6.1-32.3-22.3-36.1c-8.9-2.1-18.2-0.1-25.4,5.5c-3.3,2.5-7.4,3.8-11.5,3.7H230
			c-16.6,0-30,13.4-30,30l0,0c0,1-0.6,1.9-1.5,2.3c-15.3,6.3-22.6,23.9-16.3,39.2s23.9,22.6,39.2,16.3c4.5-1.9,8.5-4.8,11.6-8.5
			c7.4,1.8,15.3,0.7,21.9-3.2c3.8,2.2,8.1,3.6,12.5,3.9c11,12.4,29.9,13.6,42.3,2.6s13.6-29.9,2.6-42.3c-4.2-4.7-9.8-8-15.9-9.4
			C294,80.2,291.7,79.1,289.7,77.4z"/>
		<circle class="st2" cx="315" cy="175" r="15"/>
		<circle class="st2" cx="185" cy="175" r="15"/>
		<path class="st2" d="M357.6,281.5l-17.3-3.5l-36.2-7.2c-8-1.6-16.1-2.8-24.2-3.7V220h-60v47.1c-8.1,0.9-16.2,2.1-24.2,3.7
			l-33.3,6.7l-20.1,4c-24.7,4.9-42.4,26.6-42.4,51.7V470h300V333.2C400,308.1,382.3,286.4,357.6,281.5z"/>
		<path class="st2" d="M303.8,270.8c-8-1.6-16.1-2.8-24.2-3.7V230h-60v37.1c-8.1,0.9-16.2,2.1-24.2,3.7l-33.3,6.7
			c5,25.6,27.5,44,53.6,44h70.9c25.9,0,48.2-18.1,53.4-43.4L303.8,270.8z"/>
		<path class="st2" d="M310,130v60c0,33.1-26.9,60-60,60l0,0c-33.1,0-60-26.9-60-60v-60"/>
		<circle class="st0" cx="275" cy="165" r="5"/>
		<circle class="st0" cx="225" cy="165" r="5"/>
		<path class="st2" d="M270,200L270,200c0,11-9,20-20,20c-11,0-20-9-20-20"/>
		<path class="st2" d="M170,350v31.4c-13.3,17.3-13.3,41.3,0,58.6v30"/>
		<rect x="180" y="120" class="st2" width="140" height="20"/>
		
			<rect x="272.9" y="27.6" transform="matrix(0.6428 -0.766 0.766 0.6428 63.4105 230.6225)" class="st0" width="12.2" height="39.4"/>
		<rect x="330" y="360" class="st0" width="70" height="30"/>
		<rect x="370" y="340" class="st3" width="30" height="70"/>
		<rect x="380" y="350" class="st1" width="20" height="50"/>
		<path class="st2" d="M330,350v31.4V440v30"/>
	</g>
</g>
</svg>
